<svg width="16" height="16" viewBox="0 0 16 16" fill="none" xmlns="http://www.w3.org/2000/svg">
<path d="M15.2076 3.73977L15.203 3.72182C14.8277 2.25404 13.1358 0.679029 11.5821 0.35136L11.5646 0.347868C9.05158 -0.115956 6.50349 -0.115956 3.99096 0.347868L3.97292 0.35136C2.41973 0.679029 0.727879 2.25404 0.352083 3.72182L0.347959 3.73977C-0.115986 5.78958 -0.115986 7.86831 0.347959 9.91812L0.352083 9.93607C0.711847 11.3412 2.27772 12.8439 3.77342 13.2571V14.8956C3.77342 15.4885 4.52038 15.7798 4.94514 15.3519L6.66097 13.6263C7.03311 13.6465 7.40545 13.6577 7.77779 13.6577C9.04282 13.6577 10.3084 13.542 11.5646 13.3101L11.5821 13.3066C13.1358 12.9789 14.8277 11.4039 15.203 9.93612L15.2076 9.91817C15.6716 7.86831 15.6716 5.78958 15.2076 3.73977ZM13.8498 9.62087C13.5993 10.5784 12.3147 11.7689 11.294 11.9889C9.95777 12.2347 8.61098 12.3398 7.26554 12.3037C7.23879 12.303 7.21306 12.313 7.1944 12.3316C7.00346 12.5212 5.9416 13.5758 5.9416 13.5758L4.60904 14.899C4.51161 14.9972 4.34047 14.9304 4.34047 14.7948V12.0805C4.34047 12.0357 4.30737 11.9976 4.26186 11.989C4.2616 11.9889 4.26134 11.9889 4.26108 11.9888C3.2404 11.7689 1.9563 10.5784 1.70526 9.62082C1.28771 7.76801 1.28771 5.88977 1.70526 4.03697C1.9563 3.0794 3.2404 1.88891 4.26108 1.66897C6.59473 1.23956 8.96085 1.23956 11.294 1.66897C12.3152 1.88891 13.5993 3.0794 13.8498 4.03697C14.2678 5.88982 14.2678 7.76806 13.8498 9.62087Z" fill="#2E2E2E"/>
<path d="M9.99824 10.8737C9.84132 10.8276 9.69177 10.7966 9.5529 10.7409C8.11384 10.1632 6.78943 9.41803 5.74035 8.27568C5.14377 7.62607 4.67683 6.89268 4.28212 6.11655C4.09494 5.74848 3.9372 5.366 3.77642 4.98601C3.62981 4.63949 3.84575 4.2815 4.07314 4.02041C4.2865 3.77538 4.56105 3.58786 4.85839 3.44966C5.09046 3.34178 5.3194 3.40397 5.48889 3.59429C5.8553 4.00575 6.19187 4.43825 6.46441 4.91519C6.632 5.20855 6.58602 5.56714 6.28229 5.76678C6.20847 5.81531 6.1412 5.87227 6.07243 5.92708C6.01212 5.97511 5.95536 6.02363 5.91402 6.08867C5.83845 6.20767 5.83484 6.34801 5.8835 6.47738C6.25806 7.47326 6.88939 8.24765 7.92543 8.66474C8.09121 8.73147 8.25772 8.80917 8.44871 8.78763C8.76857 8.75147 8.87214 8.41203 9.09627 8.23468C9.31536 8.06137 9.59532 8.05908 9.83132 8.20356C10.0674 8.34809 10.2962 8.50325 10.5236 8.66005C10.7469 8.81396 10.9692 8.96453 11.1751 9.13999C11.3731 9.30871 11.4413 9.53005 11.3298 9.75902C11.1257 10.1784 10.8286 10.5272 10.4002 10.7499C10.2792 10.8127 10.1347 10.833 9.99824 10.8737C9.84132 10.8276 10.1347 10.833 9.99824 10.8737Z" fill="#2E2E2E"/>
<path d="M7.78174 2.97018C9.66408 3.0212 11.2101 4.22979 11.5414 6.03022C11.5979 6.337 11.618 6.65065 11.6431 6.96201C11.6536 7.09298 11.577 7.21742 11.4309 7.21911C11.28 7.22086 11.2121 7.09872 11.2023 6.9678C11.1829 6.70866 11.1695 6.44836 11.1326 6.19137C10.9377 4.83475 9.8196 3.7124 8.4239 3.47156C8.21388 3.4353 7.99892 3.42577 7.78618 3.40418C7.65169 3.39051 7.47554 3.38263 7.44574 3.22089C7.42074 3.08529 7.53905 2.97731 7.67251 2.97038C7.7088 2.96843 7.7453 2.97003 7.78174 2.97018C9.66408 3.0212 7.7453 2.97003 7.78174 2.97018Z" fill="#2E2E2E"/>
<path d="M10.6423 6.5579C10.6392 6.58064 10.6376 6.63411 10.6238 6.68448C10.5738 6.86732 10.2873 6.89021 10.2213 6.70568C10.2018 6.65092 10.1989 6.58862 10.1988 6.52967C10.1981 6.14395 10.1114 5.75863 9.9104 5.42303C9.70374 5.0781 9.38799 4.78814 9.01766 4.61268C8.79373 4.5066 8.55155 4.44067 8.30613 4.40137C8.19885 4.38421 8.09044 4.37379 7.98265 4.35927C7.85203 4.34172 7.78228 4.26117 7.78846 4.13664C7.79424 4.01993 7.88239 3.936 8.01384 3.94318C8.44582 3.96692 8.86307 4.05724 9.24711 4.25399C10.0281 4.65413 10.4742 5.28573 10.6044 6.12909C10.6103 6.16729 10.6198 6.20515 10.6228 6.2435C10.6301 6.33821 10.6348 6.43302 10.6423 6.5579C10.6392 6.58064 10.6348 6.43302 10.6423 6.5579Z" fill="#2E2E2E"/>
<path d="M9.4712 6.51375C9.31372 6.5165 9.22944 6.43216 9.2132 6.29246C9.20191 6.19506 9.19299 6.09636 9.16897 6.0016C9.12165 5.81497 9.01911 5.64201 8.85684 5.52765C8.78023 5.47364 8.69342 5.43429 8.60249 5.4089C8.48697 5.37664 8.36701 5.38551 8.25175 5.35818C8.12659 5.32851 8.05736 5.23046 8.07705 5.11684C8.09493 5.01346 8.19891 4.93276 8.31567 4.94094C9.04546 4.99191 9.56703 5.35694 9.64147 6.18813C9.64673 6.24678 9.65292 6.30877 9.63946 6.36488C9.61642 6.46094 9.54291 6.50907 9.4712 6.51375C9.31372 6.5165 9.54291 6.50907 9.4712 6.51375Z" fill="#2E2E2E"/>
</svg>
