<svg width="59" height="59" viewBox="0 0 59 59" fill="none" xmlns="http://www.w3.org/2000/svg">
<path d="M58.5198 34.7556L52.2085 29.1884L58.2966 23.3807C58.5203 23.1673 58.6123 22.8517 58.5385 22.5523C58.4645 22.253 58.2355 22.0159 57.938 21.9299L49.8352 19.5916L52.8299 11.7492C52.9399 11.4611 52.8869 11.1366 52.6911 10.8977C52.4952 10.6589 52.1861 10.5422 51.8801 10.5915L43.5517 11.9342L42.8743 3.57273C42.8494 3.26551 42.6616 2.99483 42.3817 2.86277C42.1018 2.73071 41.772 2.7571 41.517 2.93202L34.5723 7.69604L30.3537 0.431207C30.1987 0.164324 29.9123 0 29.6023 0C29.2923 0 29.0061 0.164324 28.8511 0.431207L24.0086 8.77049L15.6322 3.93606C15.3641 3.7813 15.0334 3.78061 14.7647 3.93399C14.4959 4.08736 14.33 4.37176 14.3292 4.6799L14.3089 13.0684L5.90081 12.3754C5.59255 12.35 5.29294 12.4903 5.11641 12.7434C4.93975 12.9966 4.91233 13.3243 5.04473 13.603L8.64488 21.1894L0.749829 24.1487C0.4599 24.2574 0.250288 24.5117 0.199816 24.8158C0.149343 25.1198 0.266075 25.4275 0.505878 25.6228L7.03033 30.9411L1.17493 36.9805C0.959902 37.2024 0.880044 37.5215 0.965663 37.8176C1.0514 38.1138 1.28947 38.3419 1.59012 38.4161L9.7781 40.4386L7.09371 48.3911C6.99507 48.6832 7.06075 49.0054 7.26587 49.2364C7.4711 49.4675 7.78466 49.5721 8.0883 49.5109L16.3575 47.8466L17.3625 56.1755C17.3992 56.4814 17.5977 56.7445 17.8825 56.8657C18.1676 56.987 18.4959 56.9478 18.7439 56.7631L25.4962 51.7334L29.9967 58.5975C30.1559 58.8486 30.4333 58.9999 30.7304 58.9999C30.7416 58.9999 30.7529 58.9996 30.7643 58.9992C31.074 58.9872 31.3538 58.8118 31.4982 58.5392L35.4285 51.348L42.5544 55.8391C42.8164 56.0041 43.1464 56.0177 43.4212 55.8748C43.6957 55.7319 43.8728 55.4542 43.8856 55.1463L44.2349 46.7649L52.6094 47.7835C52.9164 47.8209 53.2213 47.6924 53.4078 47.4462C53.5942 47.2 53.6343 46.8736 53.5131 46.5901L50.2133 38.8697L58.218 36.219C58.5121 36.1216 58.7315 35.8757 58.7938 35.5738C58.8561 35.2721 58.7516 34.9601 58.5198 34.7556Z" fill="#FFA600"/>
<path d="M29.3097 47.2045C39.1787 47.2045 47.179 39.2104 47.179 29.3491C47.179 19.4878 39.1787 11.4937 29.3097 11.4937C19.4408 11.4937 11.4404 19.4878 11.4404 29.3491C11.4404 39.2104 19.4408 47.2045 29.3097 47.2045Z" fill="#FFDB2D"/>
<path d="M29.3101 11.4939C28.8626 11.4939 28.4191 11.5108 27.98 11.5432C37.2275 12.2232 44.519 19.9352 44.519 29.3493C44.519 38.7634 37.2275 46.4754 27.98 47.1555C28.4191 47.1877 28.8627 47.2048 29.3101 47.2048C39.1789 47.2048 47.1793 39.2106 47.1793 29.3495C47.1793 19.488 39.1789 11.4939 29.3101 11.4939Z" fill="#FFCA00"/>
</svg>
