<svg width="81" height="47" viewBox="0 0 81 47" fill="none" xmlns="http://www.w3.org/2000/svg">
<path d="M56.996 3.84174C54.7859 1.47771 51.6395 0 48.148 0C42.381 0 37.5588 4.03254 36.339 9.43103C35.6151 9.18959 34.8419 9.05677 34.0371 9.05677C31.5593 9.05677 29.3728 10.2975 28.0613 12.1906C27.3293 12.0015 26.5617 11.8999 25.7704 11.8999C20.7396 11.8999 16.6614 15.9781 16.6614 21.0089C16.6614 26.0395 20.7396 30.1183 25.7704 30.1183H35.8138C35.835 27.0219 38.3502 24.5186 41.451 24.5186C42.0391 24.5186 42.6061 24.6088 43.1391 24.7758C43.1366 24.6905 43.1327 24.605 43.1327 24.5186C43.1327 20.3304 46.5279 16.9351 50.716 16.9351C54.3272 16.9351 57.3471 19.4605 58.1108 22.8407C58.564 22.6894 59.0479 22.6064 59.5519 22.6064C61.1034 22.6064 62.4729 23.3832 63.294 24.5689C63.7524 24.4504 64.233 24.3867 64.7284 24.3867C66.805 24.3867 68.6219 25.4966 69.6194 27.155C71.0659 25.5576 71.9472 23.4389 71.9472 21.1145C71.9472 16.1414 67.916 12.1107 62.9433 12.1107C62.0043 12.1107 61.099 12.2546 60.2478 12.5213C60.2522 12.3849 60.2581 12.2482 60.2581 12.1107C60.2581 10.0772 59.757 8.16085 58.8711 6.47808" fill="#BEEAFC"/>
<path d="M26.3194 11.9166C26.1378 11.9056 25.9548 11.8997 25.7704 11.8997C20.7396 11.8996 16.6614 15.9779 16.6614 21.0087C16.6614 26.0393 20.7396 30.118 25.7704 30.118H35.8138C35.8204 29.1464 36.073 28.2333 36.5118 27.4376C31.5459 23.6159 27.8872 18.1811 26.3194 11.9166Z" fill="#AEE4FF"/>
<path d="M27.3204 33.2077H35.2055C38.1511 27.8039 43.1851 23.7065 49.2271 22.0033C48.0115 19.052 45.1089 16.9745 41.7202 16.9745C40.873 16.9745 40.0569 17.1049 39.2899 17.3451C39.2941 17.2218 39.2994 17.0988 39.2994 16.9745C39.2994 10.9465 34.4113 6.05884 28.383 6.05884C23.1838 6.05884 18.8375 9.69325 17.7382 14.5593C17.0852 14.3416 16.3885 14.2225 15.6627 14.2225C13.4295 14.2225 11.4581 15.3405 10.276 17.047C9.61641 16.877 8.92382 16.7848 8.21083 16.7848C3.67606 16.7848 0 20.4611 0 24.9961C0 29.5302 3.67626 33.2073 8.21083 33.2073H21.3384" fill="#9FDEF7"/>
<path d="M11.9941 30.519C11.9941 24.8789 12.8615 19.4421 14.4674 14.3323C12.7355 14.652 11.2424 15.6529 10.2763 17.0472C9.61665 16.8771 8.92407 16.785 8.21108 16.785C3.6763 16.785 0.000244141 20.4612 0.000244141 24.9962C0.000244141 29.5304 3.67651 33.2075 8.21108 33.2075H12.0611C12.0174 32.3166 11.9941 31.4206 11.9941 30.519Z" fill="#83D4ED"/>
<path d="M77.6906 24.385L73.6257 20.7993L77.5468 17.0588C77.6909 16.9213 77.7502 16.718 77.7026 16.5252C77.655 16.3325 77.5075 16.1797 77.3159 16.1243L72.0971 14.6183L74.0259 9.56727C74.0968 9.38172 74.0626 9.17272 73.9365 9.01887C73.8104 8.86509 73.6112 8.7899 73.4142 8.82167L68.0501 9.68646L67.6138 4.30108C67.5978 4.10321 67.4768 3.92887 67.2965 3.84382C67.1163 3.75876 66.9039 3.77576 66.7396 3.88842L62.2667 6.95677L59.5497 2.27773C59.4498 2.10584 59.2654 2 59.0658 2C58.8661 2 58.6818 2.10584 58.5819 2.27773L55.463 7.64879L50.0681 4.53509C49.8954 4.43541 49.6824 4.43497 49.5094 4.53375C49.3362 4.63254 49.2293 4.81571 49.2288 5.01417L49.2157 10.4169L43.8004 9.97057C43.6018 9.95425 43.4089 10.0446 43.2952 10.2076C43.1814 10.3707 43.1637 10.5818 43.249 10.7612L45.5677 15.6474L40.4828 17.5534C40.2961 17.6234 40.1611 17.7872 40.1286 17.9831C40.096 18.1789 40.1712 18.377 40.3257 18.5028L44.5279 21.9282L40.7566 25.818C40.6181 25.9609 40.5667 26.1664 40.6218 26.3571C40.677 26.5478 40.8304 26.6948 41.024 26.7426L46.2976 28.0452L44.5687 33.1671C44.5052 33.3553 44.5475 33.5628 44.6796 33.7116C44.8118 33.8604 45.0137 33.9278 45.2093 33.8884L50.5352 32.8164L51.1825 38.1808C51.2061 38.3779 51.334 38.5473 51.5174 38.6254C51.701 38.7035 51.9125 38.6782 52.0722 38.5593L56.4211 35.3198L59.3197 39.7407C59.4223 39.9025 59.601 39.9999 59.7923 39.9999C59.7996 39.9999 59.8068 39.9998 59.8142 39.9995C60.0136 39.9918 60.1938 39.8788 60.2868 39.7032L62.8182 35.0716L67.4078 37.9642C67.5765 38.0705 67.7891 38.0792 67.9661 37.9872C68.1429 37.8952 68.2569 37.7163 68.2652 37.518L68.4901 32.1197L73.8839 32.7758C74.0816 32.7999 74.278 32.7171 74.3981 32.5586C74.5182 32.4 74.544 32.1898 74.4659 32.0072L72.3406 27.0347L77.4962 25.3275C77.6856 25.2648 77.8269 25.1064 77.8671 24.9119C77.9072 24.7176 77.8398 24.5167 77.6906 24.385Z" fill="#FFA600"/>
<path d="M58.8774 32.4028C65.2337 32.4028 70.3865 27.254 70.3865 20.9027C70.3865 14.5514 65.2337 9.40259 58.8774 9.40259C52.5212 9.40259 47.3684 14.5514 47.3684 20.9027C47.3684 27.254 52.5212 32.4028 58.8774 32.4028Z" fill="#FFDB2D"/>
<path d="M58.8777 9.40283C58.5894 9.40283 58.3038 9.41374 58.021 9.4346C63.9771 9.87256 68.6732 14.8396 68.6732 20.903C68.6732 26.9663 63.9771 31.9333 58.021 32.3713C58.3038 32.3921 58.5895 32.4031 58.8777 32.4031C65.2339 32.4031 70.3867 27.2543 70.3867 20.903C70.3867 14.5516 65.2339 9.40283 58.8777 9.40283Z" fill="#FFCA00"/>
<path d="M68.922 23.4586C67.9357 23.4586 66.9785 23.5875 66.0665 23.8286C64.4319 21.4212 61.7056 19.8444 58.6171 19.8444C57.6137 19.8444 56.6505 20.0129 55.7483 20.3201C54.2277 13.4574 48.2162 8.33081 41.0273 8.33081C32.69 8.33081 25.9312 15.2237 25.9312 23.7265C25.9312 23.9019 25.9388 24.0755 25.9439 24.2487C24.8829 23.9095 23.7542 23.7265 22.5835 23.7265C16.3852 23.7265 11.3601 28.8503 11.3601 35.1732C11.3601 41.4943 16.3854 46.6185 22.5835 46.6185H56.1877H62.4242H68.9224C75.1938 46.6185 80.278 41.4338 80.278 35.0386C80.2776 28.6429 75.1934 23.4586 68.922 23.4586Z" fill="#E4F2F9"/>
<path d="M34.4485 20.9957C34.4485 16.9414 35.3045 13.0884 36.842 9.60718C30.5112 11.3855 25.8655 17.2229 25.8655 24.1549C25.8655 24.327 25.873 24.4973 25.8781 24.6673C24.8219 24.3345 23.6982 24.1549 22.5328 24.1549C16.3625 24.1549 11.3601 29.1828 11.3601 35.3874C11.3601 41.5903 16.3627 46.6186 22.5328 46.6186H50.9241C41.211 42.2189 34.4485 32.4011 34.4485 20.9957Z" fill="#D7EDF9"/>
</svg>
