<svg width="35" height="33" viewBox="0 0 35 33" fill="none" xmlns="http://www.w3.org/2000/svg">
<path d="M17.3096 4.49887L17.4968 4.71031L17.684 4.49887C18.4579 3.62467 19.5448 2.55884 20.8444 1.713C22.1446 0.866787 23.6433 0.25 25.2461 0.25C28.052 0.25 30.4228 1.30405 32.0935 3.10385C33.7655 4.90502 34.75 7.46821 34.75 10.5067C34.75 17.1929 29.8692 21.5251 25.0328 25.8014C22.7598 27.8102 20.3889 29.9076 18.5634 32.236C18.3054 32.5643 17.9322 32.75 17.5445 32.75H17.4523C17.0657 32.75 16.691 32.5656 16.4317 32.236C14.6207 29.9219 12.266 27.8376 10.0078 25.8387L9.9657 25.8015L9.9656 25.8014C5.12766 21.5235 0.25 17.1912 0.25 10.5067C0.25 7.46821 1.23446 4.90503 2.90665 3.10386C4.57758 1.30407 6.94878 0.25 9.75546 0.25C11.3574 0.25 12.8541 0.86674 14.1524 1.71292C15.4503 2.55873 16.5356 3.62455 17.3096 4.49887Z" stroke="black" stroke-width="0.5"/>
</svg>
