<svg width="113" height="40" viewBox="0 0 113 40" fill="none" xmlns="http://www.w3.org/2000/svg">
<path d="M56.69 16.03H52.63L51.74 18H51.19L54.41 11H54.92L58.14 18H57.59L56.69 16.03ZM56.5 15.6L54.66 11.56L52.83 15.6H56.5ZM61.7363 12.86C62.223 12.86 62.653 12.97 63.0263 13.19C63.4063 13.4033 63.703 13.7033 63.9163 14.09C64.1297 14.4767 64.2363 14.9233 64.2363 15.43C64.2363 15.9367 64.1263 16.39 63.9063 16.79C63.693 17.1833 63.3897 17.4933 62.9963 17.72C62.6097 17.94 62.1663 18.05 61.6663 18.05C61.093 18.05 60.603 17.91 60.1963 17.63C59.7963 17.35 59.4897 16.9533 59.2763 16.44C59.0697 15.9267 58.9663 15.3267 58.9663 14.64C58.9663 13.86 59.0597 13.2133 59.2463 12.7C59.4397 12.1867 59.7263 11.7833 60.1063 11.49C60.493 11.19 60.9863 10.9667 61.5863 10.82L63.8963 10.26L63.9763 10.73L61.7763 11.25C61.2363 11.3767 60.7963 11.5633 60.4563 11.81C60.123 12.05 59.873 12.38 59.7063 12.8C59.5397 13.22 59.453 13.7567 59.4463 14.41C59.6197 13.93 59.9097 13.5533 60.3163 13.28C60.723 13 61.1963 12.86 61.7363 12.86ZM61.6763 17.62C62.0697 17.62 62.423 17.5267 62.7363 17.34C63.0497 17.1533 63.293 16.8967 63.4663 16.57C63.6397 16.2367 63.7263 15.86 63.7263 15.44C63.7263 15.02 63.6397 14.65 63.4663 14.33C63.293 14.0033 63.0497 13.7533 62.7363 13.58C62.4297 13.4 62.0763 13.31 61.6763 13.31C61.2763 13.31 60.9197 13.4 60.6063 13.58C60.293 13.7533 60.0497 14.0033 59.8763 14.33C59.703 14.65 59.6163 15.02 59.6163 15.44C59.6163 15.86 59.703 16.2367 59.8763 16.57C60.0497 16.8967 60.293 17.1533 60.6063 17.34C60.9197 17.5267 61.2763 17.62 61.6763 17.62ZM67.9888 18.04C67.4822 18.04 67.0288 17.9267 66.6288 17.7C66.2288 17.4733 65.9155 17.16 65.6888 16.76C65.4622 16.3533 65.3488 15.8967 65.3488 15.39C65.3488 14.8767 65.4622 14.42 65.6888 14.02C65.9155 13.6133 66.2288 13.3 66.6288 13.08C67.0288 12.8533 67.4822 12.74 67.9888 12.74C68.4088 12.74 68.7888 12.8233 69.1288 12.99C69.4755 13.15 69.7555 13.3867 69.9688 13.7L69.5988 13.97C69.4122 13.71 69.1788 13.5167 68.8988 13.39C68.6255 13.2567 68.3222 13.19 67.9888 13.19C67.5822 13.19 67.2155 13.2833 66.8888 13.47C66.5688 13.65 66.3155 13.9067 66.1288 14.24C65.9488 14.5733 65.8588 14.9567 65.8588 15.39C65.8588 15.8233 65.9488 16.2067 66.1288 16.54C66.3155 16.8733 66.5688 17.1333 66.8888 17.32C67.2155 17.5 67.5822 17.59 67.9888 17.59C68.3222 17.59 68.6255 17.5267 68.8988 17.4C69.1788 17.2667 69.4122 17.07 69.5988 16.81L69.9688 17.08C69.7555 17.3933 69.4755 17.6333 69.1288 17.8C68.7888 17.96 68.4088 18.04 67.9888 18.04ZM73.4373 18.04C72.944 18.04 72.4973 17.9267 72.0973 17.7C71.704 17.4733 71.394 17.16 71.1673 16.76C70.9407 16.3533 70.8273 15.8967 70.8273 15.39C70.8273 14.8833 70.9407 14.43 71.1673 14.03C71.394 13.6233 71.704 13.3067 72.0973 13.08C72.4973 12.8533 72.944 12.74 73.4373 12.74C73.9307 12.74 74.374 12.8533 74.7673 13.08C75.1673 13.3067 75.4807 13.6233 75.7073 14.03C75.934 14.43 76.0473 14.8833 76.0473 15.39C76.0473 15.8967 75.934 16.3533 75.7073 16.76C75.4807 17.16 75.1673 17.4733 74.7673 17.7C74.374 17.9267 73.9307 18.04 73.4373 18.04ZM73.4373 17.59C73.8373 17.59 74.194 17.4967 74.5073 17.31C74.8273 17.1233 75.0773 16.8633 75.2573 16.53C75.444 16.1967 75.5373 15.8167 75.5373 15.39C75.5373 14.9633 75.444 14.5833 75.2573 14.25C75.0773 13.9167 74.8273 13.6567 74.5073 13.47C74.194 13.2833 73.8373 13.19 73.4373 13.19C73.0373 13.19 72.6773 13.2833 72.3573 13.47C72.044 13.6567 71.794 13.9167 71.6073 14.25C71.4273 14.5833 71.3373 14.9633 71.3373 15.39C71.3373 15.8167 71.4273 16.1967 71.6073 16.53C71.794 16.8633 72.044 17.1233 72.3573 17.31C72.6773 17.4967 73.0373 17.59 73.4373 17.59ZM81.7362 12.78V18H81.2362V13.23H78.5162L78.4462 14.62C78.4062 15.34 78.3462 15.9433 78.2662 16.43C78.1862 16.9167 78.0495 17.31 77.8562 17.61C77.6628 17.91 77.3962 18.06 77.0562 18.06C76.9562 18.06 76.8128 18.0367 76.6262 17.99L76.6762 17.56C76.7828 17.5867 76.8628 17.6 76.9162 17.6C77.1962 17.6 77.4095 17.4633 77.5562 17.19C77.7028 16.9167 77.8028 16.5767 77.8562 16.17C77.9095 15.7633 77.9528 15.2333 77.9862 14.58L78.0762 12.78H81.7362ZM88.2664 12.74C88.7531 12.74 89.1897 12.8533 89.5764 13.08C89.9631 13.3 90.2664 13.6133 90.4864 14.02C90.7064 14.42 90.8164 14.8767 90.8164 15.39C90.8164 15.8967 90.7064 16.3533 90.4864 16.76C90.2664 17.16 89.9631 17.4733 89.5764 17.7C89.1897 17.9267 88.7531 18.04 88.2664 18.04C87.7997 18.04 87.3764 17.9367 86.9964 17.73C86.6231 17.5233 86.3231 17.2333 86.0964 16.86C85.8764 16.4867 85.7531 16.06 85.7264 15.58H84.3964V18H83.8964V12.78H84.3964V15.12H85.7264C85.7664 14.6533 85.8997 14.24 86.1264 13.88C86.3531 13.52 86.6531 13.24 87.0264 13.04C87.3997 12.84 87.8131 12.74 88.2664 12.74ZM88.2664 17.6C88.6531 17.6 89.0031 17.5067 89.3164 17.32C89.6297 17.1333 89.8731 16.8733 90.0464 16.54C90.2264 16.2 90.3164 15.8167 90.3164 15.39C90.3164 14.9567 90.2264 14.5733 90.0464 14.24C89.8731 13.9067 89.6297 13.65 89.3164 13.47C89.0031 13.2833 88.6531 13.19 88.2664 13.19C87.8797 13.19 87.5297 13.2833 87.2164 13.47C86.9031 13.65 86.6564 13.9067 86.4764 14.24C86.3031 14.5733 86.2164 14.9567 86.2164 15.39C86.2164 15.8167 86.3031 16.2 86.4764 16.54C86.6564 16.8733 86.9031 17.1333 87.2164 17.32C87.5297 17.5067 87.8797 17.6 88.2664 17.6ZM95.7555 13.23H93.7155V18H93.2155V13.23H91.1755V12.78H95.7555V13.23ZM57.444 28.924H55.428V34H52.53V21.4H55.428V26.494H57.516L60.828 21.4H63.906L59.784 27.484L64.032 34H60.72L57.444 28.924ZM70.852 21.4C71.968 21.4 72.934 21.586 73.75 21.958C74.578 22.33 75.214 22.858 75.658 23.542C76.102 24.226 76.324 25.036 76.324 25.972C76.324 26.896 76.102 27.706 75.658 28.402C75.214 29.086 74.578 29.614 73.75 29.986C72.934 30.346 71.968 30.526 70.852 30.526H68.314V34H65.398V21.4H70.852ZM70.69 28.15C71.566 28.15 72.232 27.964 72.688 27.592C73.144 27.208 73.372 26.668 73.372 25.972C73.372 25.264 73.144 24.724 72.688 24.352C72.232 23.968 71.566 23.776 70.69 23.776H68.314V28.15H70.69ZM84.3496 25.54C85.8856 25.54 87.0616 25.882 87.8776 26.566C88.7056 27.25 89.1196 28.264 89.1196 29.608C89.1196 31.036 88.6636 32.128 87.7516 32.884C86.8516 33.628 85.5796 34 83.9356 34H78.2476V21.4H81.1456V25.54H84.3496ZM83.7736 31.84C84.5296 31.84 85.1176 31.654 85.5376 31.282C85.9696 30.91 86.1856 30.37 86.1856 29.662C86.1856 28.354 85.3816 27.7 83.7736 27.7H81.1456V31.84H83.7736ZM90.7216 21.4H93.6196V34H90.7216V21.4ZM108.223 34L108.205 26.458L104.497 32.668H103.201L99.4934 26.602V34H96.7574V21.4H99.1694L103.885 29.23L108.529 21.4H110.941L110.959 34H108.223Z" fill="#2E2E2E"/>
<path d="M41 26.2624C41 35.0523 35.509 40 24.6089 40C13.7088 40 -6.16663 30.2026 1.86172 15.6587C15.5769 -2.25918 23.6052 -1.12152 28.2886 1.45964C37.655 8.22111 41 15.2464 41 26.2624Z" fill="#2E2E2E"/>
<path d="M36 23.0099C36 30.0419 31.5804 34 22.8071 34C14.0339 34 -1.96338 26.1621 4.49846 14.527C15.5375 0.192658 21.9993 1.10279 25.7688 3.16771C33.3077 8.57689 36 14.1971 36 23.0099Z" fill="white"/>
</svg>
