<svg width="113" height="40" viewBox="0 0 113 40" fill="none" xmlns="http://www.w3.org/2000/svg">
<path d="M56.69 16.0299H52.63L51.74 17.9999H51.19L54.41 10.9999H54.92L58.14 17.9999H57.59L56.69 16.0299ZM56.5 15.5999L54.66 11.5599L52.83 15.5999H56.5ZM61.7363 12.8599C62.223 12.8599 62.653 12.9699 63.0263 13.1899C63.4063 13.4032 63.703 13.7032 63.9163 14.0899C64.1297 14.4765 64.2363 14.9232 64.2363 15.4299C64.2363 15.9365 64.1263 16.3899 63.9063 16.7899C63.693 17.1832 63.3897 17.4932 62.9963 17.7199C62.6097 17.9399 62.1663 18.0499 61.6663 18.0499C61.093 18.0499 60.603 17.9099 60.1963 17.6299C59.7963 17.3499 59.4897 16.9532 59.2763 16.4399C59.0697 15.9265 58.9663 15.3265 58.9663 14.6399C58.9663 13.8599 59.0597 13.2132 59.2463 12.6999C59.4397 12.1865 59.7263 11.7832 60.1063 11.4899C60.493 11.1899 60.9863 10.9665 61.5863 10.8199L63.8963 10.2599L63.9763 10.7299L61.7763 11.2499C61.2363 11.3765 60.7963 11.5632 60.4563 11.8099C60.123 12.0499 59.873 12.3799 59.7063 12.7999C59.5397 13.2199 59.453 13.7565 59.4463 14.4099C59.6197 13.9299 59.9097 13.5532 60.3163 13.2799C60.723 12.9999 61.1963 12.8599 61.7363 12.8599ZM61.6763 17.6199C62.0697 17.6199 62.423 17.5265 62.7363 17.3399C63.0497 17.1532 63.293 16.8965 63.4663 16.5699C63.6397 16.2365 63.7263 15.8599 63.7263 15.4399C63.7263 15.0199 63.6397 14.6499 63.4663 14.3299C63.293 14.0032 63.0497 13.7532 62.7363 13.5799C62.4297 13.3999 62.0763 13.3099 61.6763 13.3099C61.2763 13.3099 60.9197 13.3999 60.6063 13.5799C60.293 13.7532 60.0497 14.0032 59.8763 14.3299C59.703 14.6499 59.6163 15.0199 59.6163 15.4399C59.6163 15.8599 59.703 16.2365 59.8763 16.5699C60.0497 16.8965 60.293 17.1532 60.6063 17.3399C60.9197 17.5265 61.2763 17.6199 61.6763 17.6199ZM67.9888 18.0399C67.4822 18.0399 67.0288 17.9265 66.6288 17.6999C66.2288 17.4732 65.9155 17.1599 65.6888 16.7599C65.4622 16.3532 65.3488 15.8965 65.3488 15.3899C65.3488 14.8765 65.4622 14.4199 65.6888 14.0199C65.9155 13.6132 66.2288 13.2999 66.6288 13.0799C67.0288 12.8532 67.4822 12.7399 67.9888 12.7399C68.4088 12.7399 68.7888 12.8232 69.1288 12.9899C69.4755 13.1499 69.7555 13.3865 69.9688 13.6999L69.5988 13.9699C69.4122 13.7099 69.1788 13.5165 68.8988 13.3899C68.6255 13.2565 68.3222 13.1899 67.9888 13.1899C67.5822 13.1899 67.2155 13.2832 66.8888 13.4699C66.5688 13.6499 66.3155 13.9065 66.1288 14.2399C65.9488 14.5732 65.8588 14.9565 65.8588 15.3899C65.8588 15.8232 65.9488 16.2065 66.1288 16.5399C66.3155 16.8732 66.5688 17.1332 66.8888 17.3199C67.2155 17.4999 67.5822 17.5899 67.9888 17.5899C68.3222 17.5899 68.6255 17.5265 68.8988 17.3999C69.1788 17.2665 69.4122 17.0699 69.5988 16.8099L69.9688 17.0799C69.7555 17.3932 69.4755 17.6332 69.1288 17.7999C68.7888 17.9599 68.4088 18.0399 67.9888 18.0399ZM73.4373 18.0399C72.944 18.0399 72.4973 17.9265 72.0973 17.6999C71.704 17.4732 71.394 17.1599 71.1673 16.7599C70.9407 16.3532 70.8273 15.8965 70.8273 15.3899C70.8273 14.8832 70.9407 14.4299 71.1673 14.0299C71.394 13.6232 71.704 13.3065 72.0973 13.0799C72.4973 12.8532 72.944 12.7399 73.4373 12.7399C73.9307 12.7399 74.374 12.8532 74.7673 13.0799C75.1673 13.3065 75.4807 13.6232 75.7073 14.0299C75.934 14.4299 76.0473 14.8832 76.0473 15.3899C76.0473 15.8965 75.934 16.3532 75.7073 16.7599C75.4807 17.1599 75.1673 17.4732 74.7673 17.6999C74.374 17.9265 73.9307 18.0399 73.4373 18.0399ZM73.4373 17.5899C73.8373 17.5899 74.194 17.4965 74.5073 17.3099C74.8273 17.1232 75.0773 16.8632 75.2573 16.5299C75.444 16.1965 75.5373 15.8165 75.5373 15.3899C75.5373 14.9632 75.444 14.5832 75.2573 14.2499C75.0773 13.9165 74.8273 13.6565 74.5073 13.4699C74.194 13.2832 73.8373 13.1899 73.4373 13.1899C73.0373 13.1899 72.6773 13.2832 72.3573 13.4699C72.044 13.6565 71.794 13.9165 71.6073 14.2499C71.4273 14.5832 71.3373 14.9632 71.3373 15.3899C71.3373 15.8165 71.4273 16.1965 71.6073 16.5299C71.794 16.8632 72.044 17.1232 72.3573 17.3099C72.6773 17.4965 73.0373 17.5899 73.4373 17.5899ZM81.7362 12.7799V17.9999H81.2362V13.2299H78.5162L78.4462 14.6199C78.4062 15.3399 78.3462 15.9432 78.2662 16.4299C78.1862 16.9165 78.0495 17.3099 77.8562 17.6099C77.6628 17.9099 77.3962 18.0599 77.0562 18.0599C76.9562 18.0599 76.8128 18.0365 76.6262 17.9899L76.6762 17.5599C76.7828 17.5865 76.8628 17.5999 76.9162 17.5999C77.1962 17.5999 77.4095 17.4632 77.5562 17.1899C77.7028 16.9165 77.8028 16.5765 77.8562 16.1699C77.9095 15.7632 77.9528 15.2332 77.9862 14.5799L78.0762 12.7799H81.7362ZM88.2664 12.7399C88.7531 12.7399 89.1897 12.8532 89.5764 13.0799C89.9631 13.2999 90.2664 13.6132 90.4864 14.0199C90.7064 14.4199 90.8164 14.8765 90.8164 15.3899C90.8164 15.8965 90.7064 16.3532 90.4864 16.7599C90.2664 17.1599 89.9631 17.4732 89.5764 17.6999C89.1897 17.9265 88.7531 18.0399 88.2664 18.0399C87.7997 18.0399 87.3764 17.9365 86.9964 17.7299C86.6231 17.5232 86.3231 17.2332 86.0964 16.8599C85.8764 16.4865 85.7531 16.0599 85.7264 15.5799H84.3964V17.9999H83.8964V12.7799H84.3964V15.1199H85.7264C85.7664 14.6532 85.8997 14.2399 86.1264 13.8799C86.3531 13.5199 86.6531 13.2399 87.0264 13.0399C87.3997 12.8399 87.8131 12.7399 88.2664 12.7399ZM88.2664 17.5999C88.6531 17.5999 89.0031 17.5065 89.3164 17.3199C89.6297 17.1332 89.8731 16.8732 90.0464 16.5399C90.2264 16.1999 90.3164 15.8165 90.3164 15.3899C90.3164 14.9565 90.2264 14.5732 90.0464 14.2399C89.8731 13.9065 89.6297 13.6499 89.3164 13.4699C89.0031 13.2832 88.6531 13.1899 88.2664 13.1899C87.8797 13.1899 87.5297 13.2832 87.2164 13.4699C86.9031 13.6499 86.6564 13.9065 86.4764 14.2399C86.3031 14.5732 86.2164 14.9565 86.2164 15.3899C86.2164 15.8165 86.3031 16.1999 86.4764 16.5399C86.6564 16.8732 86.9031 17.1332 87.2164 17.3199C87.5297 17.5065 87.8797 17.5999 88.2664 17.5999ZM95.7555 13.2299H93.7155V17.9999H93.2155V13.2299H91.1755V12.7799H95.7555V13.2299ZM57.444 28.9239H55.428V33.9999H52.53V21.3999H55.428V26.4939H57.516L60.828 21.3999H63.906L59.784 27.4839L64.032 33.9999H60.72L57.444 28.9239ZM70.852 21.3999C71.968 21.3999 72.934 21.5859 73.75 21.9579C74.578 22.3299 75.214 22.8579 75.658 23.5419C76.102 24.2259 76.324 25.0359 76.324 25.9719C76.324 26.8959 76.102 27.7059 75.658 28.4019C75.214 29.0859 74.578 29.6139 73.75 29.9859C72.934 30.3459 71.968 30.5259 70.852 30.5259H68.314V33.9999H65.398V21.3999H70.852ZM70.69 28.1499C71.566 28.1499 72.232 27.9639 72.688 27.5919C73.144 27.2079 73.372 26.6679 73.372 25.9719C73.372 25.2639 73.144 24.7239 72.688 24.3519C72.232 23.9679 71.566 23.7759 70.69 23.7759H68.314V28.1499H70.69ZM84.3496 25.5399C85.8856 25.5399 87.0616 25.8819 87.8776 26.5659C88.7056 27.2499 89.1196 28.2639 89.1196 29.6079C89.1196 31.0359 88.6636 32.1279 87.7516 32.8839C86.8516 33.6279 85.5796 33.9999 83.9356 33.9999H78.2476V21.3999H81.1456V25.5399H84.3496ZM83.7736 31.8399C84.5296 31.8399 85.1176 31.6539 85.5376 31.2819C85.9696 30.9099 86.1856 30.3699 86.1856 29.6619C86.1856 28.3539 85.3816 27.6999 83.7736 27.6999H81.1456V31.8399H83.7736ZM90.7216 21.3999H93.6196V33.9999H90.7216V21.3999ZM108.223 33.9999L108.205 26.4579L104.497 32.6679H103.201L99.4934 26.6019V33.9999H96.7574V21.3999H99.1694L103.885 29.2299L108.529 21.3999H110.941L110.959 33.9999H108.223Z" fill="white"/>
<path d="M41 26.2623C41 35.0522 35.509 39.9999 24.6089 39.9999C13.7088 39.9999 -6.16663 30.2025 1.86172 15.6586C15.5769 -2.2593 23.6052 -1.12164 28.2886 1.45952C37.655 8.22099 41 15.2462 41 26.2623Z" fill="white"/>
<path d="M36 23.0098C36 30.0417 31.5804 33.9999 22.8071 33.9999C14.0339 33.9999 -1.96338 26.162 4.49846 14.5268C15.5375 0.192536 21.9993 1.10266 25.7688 3.16759C33.3077 8.57676 36 14.197 36 23.0098Z" fill="#2E2E2E"/>
</svg>
