<svg width="35" height="34" viewBox="0 0 35 34" fill="none" xmlns="http://www.w3.org/2000/svg">
<g opacity="0.75">
<g filter="url(#filter0_d)">
<rect x="4.32007" y="4" width="22" height="22" rx="7" fill="white"/>
</g>
<path d="M20.82 19.1866C20.569 19.8934 19.573 20.4797 18.7784 20.6509C18.2349 20.7663 17.5249 20.8584 15.1349 19.8701C12.0777 18.6068 10.109 15.5083 9.95555 15.3072C9.80861 15.1062 8.72021 13.6665 8.72021 12.1775C8.72021 10.6886 9.47832 9.96355 9.7839 9.65227C10.0349 9.39676 10.4497 9.28003 10.8476 9.28003C10.9763 9.28003 11.0921 9.28651 11.1961 9.2917C11.5017 9.30467 11.6551 9.32283 11.8567 9.80402C12.1076 10.4071 12.7188 11.8961 12.7916 12.0491C12.8657 12.2022 12.9399 12.4097 12.8358 12.6107C12.7383 12.8183 12.6525 12.9104 12.499 13.0867C12.3456 13.2631 12.2 13.398 12.0465 13.5874C11.9061 13.7521 11.7474 13.9285 11.9243 14.2333C12.1011 14.5316 12.7123 15.5264 13.6121 16.3254C14.7734 17.3565 15.7148 17.6859 16.0516 17.826C16.3026 17.9298 16.6017 17.9051 16.785 17.7106C17.0178 17.4603 17.3051 17.0452 17.5977 16.6367C17.8058 16.3435 18.0685 16.3072 18.3441 16.411C18.625 16.5083 20.1113 17.2411 20.4169 17.3928C20.7225 17.5459 20.924 17.6185 20.9982 17.7469C21.071 17.8753 21.071 18.4784 20.82 19.1866Z" fill="black"/>
</g>
<defs>
<filter id="filter0_d" x="0.320068" y="0" width="34" height="34" filterUnits="userSpaceOnUse" color-interpolation-filters="sRGB">
<feFlood flood-opacity="0" result="BackgroundImageFix"/>
<feColorMatrix in="SourceAlpha" type="matrix" values="0 0 0 0 0 0 0 0 0 0 0 0 0 0 0 0 0 0 127 0"/>
<feOffset dx="2" dy="2"/>
<feGaussianBlur stdDeviation="3"/>
<feColorMatrix type="matrix" values="0 0 0 0 0 0 0 0 0 0 0 0 0 0 0 0 0 0 0.15 0"/>
<feBlend mode="normal" in2="BackgroundImageFix" result="effect1_dropShadow"/>
<feBlend mode="normal" in="SourceGraphic" in2="effect1_dropShadow" result="shape"/>
</filter>
</defs>
</svg>
