<svg width="34" height="34" viewBox="0 0 34 34" fill="none" xmlns="http://www.w3.org/2000/svg">
<g opacity="0.75">
<g filter="url(#filter0_d)">
<rect x="4" y="4" width="22" height="22" rx="7" fill="white"/>
</g>
<path d="M21.3046 11.5734L21.3007 11.5581C20.9822 10.3126 19.5466 8.97611 18.2282 8.69806L18.2133 8.69509C16.0808 8.30151 13.9186 8.30151 11.7865 8.69509L11.7712 8.69806C10.4532 8.97611 9.01756 10.3126 8.69867 11.5581L8.69517 11.5734C8.30148 13.3128 8.30148 15.0767 8.69517 16.8161L8.69867 16.8314C9.00395 18.0237 10.3327 19.2988 11.6019 19.6495V21.0398C11.6019 21.543 12.2358 21.7902 12.5962 21.4271L14.0522 19.9628C14.368 19.9799 14.6839 19.9894 14.9999 19.9894C16.0734 19.9894 17.1473 19.8912 18.2133 19.6944L18.2282 19.6915C19.5466 19.4134 20.9822 18.0769 21.3007 16.8314L21.3046 16.8162C21.6983 15.0767 21.6983 13.3128 21.3046 11.5734ZM20.1524 16.5639C19.9398 17.3765 18.8498 18.3867 17.9836 18.5733C16.8498 18.7819 15.7069 18.8711 14.5652 18.8405C14.5425 18.8399 14.5207 18.8484 14.5049 18.8641C14.3428 19.025 13.4418 19.92 13.4418 19.92L12.311 21.0427C12.2283 21.1261 12.0831 21.0694 12.0831 20.9543V18.6511C12.0831 18.613 12.055 18.5807 12.0164 18.5734C12.0162 18.5733 12.0159 18.5733 12.0157 18.5733C11.1496 18.3866 10.06 17.3764 9.84693 16.5638C9.49261 14.9916 9.49261 13.3978 9.84693 11.8256C10.06 11.013 11.1496 10.0028 12.0157 9.81614C13.996 9.45175 16.0038 9.45175 17.9836 9.81614C18.8502 10.0028 19.9398 11.013 20.1524 11.8256C20.5071 13.3978 20.5071 14.9916 20.1524 16.5639Z" fill="black"/>
<path d="M16.806 18.0798C16.6617 18.0364 16.5241 18.0072 16.3964 17.9547C15.0729 17.4108 13.8549 16.7092 12.8901 15.6336C12.3414 15.0219 11.9119 14.3313 11.5489 13.6006C11.3768 13.254 11.2317 12.8939 11.0838 12.5361C10.949 12.2098 11.1476 11.8727 11.3567 11.6269C11.553 11.3962 11.8055 11.2196 12.0789 11.0895C12.2924 10.9879 12.5029 11.0464 12.6588 11.2256C12.9958 11.6131 13.3053 12.0203 13.556 12.4694C13.7101 12.7456 13.6678 13.0832 13.3885 13.2712C13.3206 13.3169 13.2587 13.3705 13.1955 13.4222C13.14 13.4674 13.0878 13.5131 13.0498 13.5743C12.9803 13.6863 12.977 13.8185 13.0217 13.9403C13.3662 14.878 13.9468 15.6072 14.8996 15.9999C15.0521 16.0627 15.2052 16.1359 15.3809 16.1156C15.6751 16.0815 15.7703 15.7619 15.9765 15.5949C16.1779 15.4318 16.4354 15.4296 16.6525 15.5656C16.8696 15.7017 17.08 15.8478 17.2892 15.9955C17.4945 16.1404 17.6989 16.2822 17.8883 16.4474C18.0704 16.6062 18.1332 16.8146 18.0306 17.0302C17.8429 17.4251 17.5697 17.7536 17.1756 17.9632C17.0644 18.0224 16.9315 18.0415 16.806 18.0798C16.6617 18.0364 16.9315 18.0415 16.806 18.0798Z" fill="black"/>
<path d="M14.8441 11.0403C16.4211 11.072 17.7163 11.8228 17.9938 12.9412C18.0411 13.1318 18.058 13.3266 18.079 13.5201C18.0879 13.6014 18.0236 13.6787 17.9013 13.6798C17.7748 13.6809 17.718 13.605 17.7098 13.5237C17.6935 13.3627 17.6823 13.201 17.6513 13.0413C17.4881 12.1986 16.5514 11.5013 15.3821 11.3517C15.2062 11.3292 15.0261 11.3233 14.8478 11.3099C14.7352 11.3014 14.5876 11.2965 14.5626 11.196C14.5417 11.1118 14.6408 11.0447 14.7526 11.0404C14.783 11.0392 14.8136 11.0402 14.8441 11.0403C16.4211 11.072 14.8136 11.0402 14.8441 11.0403Z" fill="black"/>
<path d="M18.0798 13.5122C18.076 13.5261 18.074 13.5586 18.057 13.5893C17.9954 13.7006 17.642 13.7145 17.5607 13.6022C17.5366 13.5689 17.5329 13.5309 17.5328 13.495C17.532 13.2602 17.4251 13.0256 17.1772 12.8212C16.9223 12.6112 16.5329 12.4347 16.0762 12.3278C15.8 12.2632 15.5014 12.2231 15.1987 12.1992C15.0664 12.1887 14.9327 12.1824 14.7998 12.1735C14.6387 12.1628 14.5527 12.1138 14.5603 12.038C14.5674 11.9669 14.6761 11.9158 14.8382 11.9202C15.371 11.9346 15.8855 11.9896 16.3592 12.1094C17.3223 12.3531 17.8725 12.7376 18.0331 13.2511C18.0403 13.2744 18.052 13.2974 18.0557 13.3208C18.0648 13.3785 18.0705 13.4362 18.0798 13.5122C18.076 13.5261 18.0705 13.4362 18.0798 13.5122Z" fill="black"/>
<path d="M16.904 13.6792C16.6398 13.6823 16.4984 13.588 16.4712 13.4318C16.4523 13.3229 16.4373 13.2125 16.397 13.1066C16.3176 12.8979 16.1456 12.7045 15.8734 12.5766C15.7449 12.5162 15.5993 12.4722 15.4468 12.4438C15.253 12.4077 15.0518 12.4177 14.8584 12.3871C14.6485 12.3539 14.5323 12.2443 14.5654 12.1173C14.5954 12.0016 14.7698 11.9114 14.9657 11.9206C16.1898 11.9776 17.0647 12.3857 17.1896 13.3151C17.1984 13.3807 17.2088 13.45 17.1862 13.5128C17.1476 13.6202 17.0243 13.674 16.904 13.6792C16.6398 13.6823 17.0243 13.674 16.904 13.6792Z" fill="black"/>
</g>
<defs>
<filter id="filter0_d" x="0" y="0" width="34" height="34" filterUnits="userSpaceOnUse" color-interpolation-filters="sRGB">
<feFlood flood-opacity="0" result="BackgroundImageFix"/>
<feColorMatrix in="SourceAlpha" type="matrix" values="0 0 0 0 0 0 0 0 0 0 0 0 0 0 0 0 0 0 127 0"/>
<feOffset dx="2" dy="2"/>
<feGaussianBlur stdDeviation="3"/>
<feColorMatrix type="matrix" values="0 0 0 0 0 0 0 0 0 0 0 0 0 0 0 0 0 0 0.15 0"/>
<feBlend mode="normal" in2="BackgroundImageFix" result="effect1_dropShadow"/>
<feBlend mode="normal" in="SourceGraphic" in2="effect1_dropShadow" result="shape"/>
</filter>
</defs>
</svg>
