<svg width="71" height="56" viewBox="0 0 71 56" fill="none" xmlns="http://www.w3.org/2000/svg">
<line x1="20.8603" y1="52.925" x2="23.1208" y2="49.0097" stroke="#97B1BD" stroke-width="2" stroke-linecap="round" stroke-linejoin="round"/>
<line x1="39.4333" y1="53.8093" x2="41.6938" y2="49.894" stroke="#97B1BD" stroke-width="2" stroke-linecap="round" stroke-linejoin="round"/>
<path d="M23.2776 8.77061C23.117 8.76087 22.9552 8.75562 22.7921 8.75562C18.3427 8.75552 14.7358 12.3625 14.7358 16.8119C14.7358 21.2611 18.3427 24.8684 22.7921 24.8684H31.6748C31.6806 24.0091 31.904 23.2016 32.2921 22.4978C27.9001 19.1178 24.6642 14.3111 23.2776 8.77061Z" fill="#AEE4FF"/>
<line x1="30.5888" y1="50.4379" x2="33.9665" y2="44.5876" stroke="#97B1BD" stroke-width="2" stroke-linecap="round" stroke-linejoin="round"/>
<path d="M50.4089 3.39773C48.4542 1.30693 45.6714 0 42.5835 0C37.4829 0 33.2181 3.56649 32.1393 8.34106C31.499 8.12752 30.8152 8.01005 30.1034 8.01005C27.9119 8.01005 25.9781 9.10736 24.8183 10.7817C24.1709 10.6145 23.4919 10.5246 22.7921 10.5246C18.3427 10.5246 14.7358 14.1315 14.7358 18.5809C14.7358 23.0301 18.3427 26.6374 22.7921 26.6374H31.6748C31.6935 23.8989 33.918 21.6849 36.6605 21.6849C37.1806 21.6849 37.6821 21.7647 38.1535 21.9124C38.1513 21.837 38.1478 21.7613 38.1478 21.6849C38.1478 17.9807 41.1506 14.9779 44.8547 14.9779C48.0485 14.9779 50.7194 17.2114 51.3949 20.2009C51.7957 20.0671 52.2236 19.9937 52.6694 19.9937C54.0416 19.9937 55.2528 20.6807 55.979 21.7294C56.3844 21.6246 56.8095 21.5682 57.2476 21.5682C59.0842 21.5682 60.6911 22.5499 61.5734 24.0166C62.8527 22.6038 63.6321 20.73 63.6321 18.6743C63.6321 14.2759 60.0668 10.711 55.6688 10.711C54.8383 10.711 54.0377 10.8383 53.2848 11.0742C53.2887 10.9536 53.294 10.8327 53.294 10.711C53.294 8.91254 52.8508 7.21768 52.0673 5.72939" fill="#84AEBF"/>
<path d="M24.1629 27.601H31.1367C33.7418 22.8218 38.1941 19.1979 43.5377 17.6916C42.4627 15.0813 39.8955 13.2439 36.8984 13.2439C36.1492 13.2439 35.4274 13.3593 34.7491 13.5717C34.7527 13.4627 34.7575 13.3538 34.7575 13.2439C34.7575 7.91263 30.4343 3.58984 25.1027 3.58984C20.5044 3.58984 16.6604 6.80422 15.6881 11.1079C15.1106 10.9153 14.4944 10.81 13.8525 10.81C11.8774 10.81 10.1339 11.7988 9.08838 13.3081C8.50501 13.1577 7.89247 13.0762 7.26188 13.0762C3.2512 13.0762 0 16.3276 0 20.3384C0 24.3486 3.25138 27.6007 7.26188 27.6007H18.8722" fill="#9BB8C7"/>
<path d="M10.6079 25.2229C10.6079 20.2347 11.3751 15.4263 12.7954 10.907C11.2637 11.1897 9.94308 12.075 9.08862 13.3081C8.50525 13.1577 7.89271 13.0762 7.26213 13.0762C3.25145 13.0762 0.000244141 16.3276 0.000244141 20.3385C0.000244141 24.3486 3.25163 27.6007 7.26213 27.6007H10.6672C10.6285 26.8128 10.6079 26.0203 10.6079 25.2229Z" fill="#B6CFDC"/>
<path d="M60.9564 18.9785C60.0841 18.9785 59.2376 19.0925 58.4309 19.3058C56.9853 17.1766 54.5741 15.782 51.8425 15.782C50.955 15.782 50.1031 15.9311 49.3052 16.2027C47.9603 10.1333 42.6436 5.59912 36.2856 5.59912C28.9118 5.59912 22.9342 11.6954 22.9342 19.2155C22.9342 19.3706 22.9409 19.5241 22.9454 19.6773C22.007 19.3774 21.0087 19.2155 19.9734 19.2155C14.4914 19.2155 10.0471 23.7471 10.0471 29.3392C10.0471 34.9298 14.4916 39.4618 19.9734 39.4618H49.6938H55.2096H60.9568C66.5034 39.4618 71 34.8763 71 29.2202C70.9996 23.5637 66.503 18.9785 60.9564 18.9785Z" fill="#9BB8C7"/>
<path d="M30.4671 16.8003C30.4671 13.2146 31.2242 9.80692 32.584 6.72803C26.9848 8.30087 22.8761 13.4636 22.8761 19.5944C22.8761 19.7466 22.8827 19.8973 22.8872 20.0476C21.9531 19.7533 20.9593 19.5944 19.9286 19.5944C14.4714 19.5944 10.0471 24.0412 10.0471 29.5287C10.0471 35.0148 14.4716 39.462 19.9286 39.462H45.0386C36.448 35.5707 30.4671 26.8876 30.4671 16.8003Z" fill="#B6CFDC"/>
</svg>
