<svg width="81" height="45" viewBox="0 0 81 45" fill="none" xmlns="http://www.w3.org/2000/svg">
<path d="M56.996 3.84174C54.7859 1.47771 51.6395 0 48.148 0C42.381 0 37.5588 4.03254 36.339 9.43103C35.6151 9.18959 34.8419 9.05677 34.0371 9.05677C31.5593 9.05677 29.3728 10.2975 28.0613 12.1906C27.3293 12.0015 26.5617 11.8999 25.7704 11.8999C20.7396 11.8999 16.6614 15.9781 16.6614 21.0089C16.6614 26.0395 20.7396 30.1183 25.7704 30.1183H35.8138C35.835 27.0219 38.3502 24.5186 41.451 24.5186C42.0391 24.5186 42.6061 24.6088 43.1391 24.7758C43.1366 24.6905 43.1327 24.605 43.1327 24.5186C43.1327 20.3304 46.5279 16.9351 50.716 16.9351C54.3272 16.9351 57.3471 19.4605 58.1108 22.8407C58.564 22.6894 59.0479 22.6064 59.5519 22.6064C61.1034 22.6064 62.4729 23.3832 63.294 24.5689C63.7524 24.4504 64.233 24.3867 64.7284 24.3867C66.805 24.3867 68.6219 25.4966 69.6194 27.155C71.0659 25.5576 71.9472 23.4389 71.9472 21.1145C71.9472 16.1414 67.916 12.1107 62.9433 12.1107C62.0043 12.1107 61.099 12.2546 60.2478 12.5213C60.2522 12.3849 60.2581 12.2482 60.2581 12.1107C60.2581 10.0772 59.757 8.16085 58.8711 6.47808" fill="#BEEAFC"/>
<path d="M26.3194 11.9166C26.1378 11.9056 25.9548 11.8997 25.7704 11.8997C20.7396 11.8996 16.6614 15.9779 16.6614 21.0087C16.6614 26.0393 20.7396 30.118 25.7704 30.118H35.8138C35.8204 29.1464 36.073 28.2333 36.5118 27.4376C31.5459 23.6159 27.8872 18.1811 26.3194 11.9166Z" fill="#AEE4FF"/>
<path d="M27.3204 31.2077H35.2055C38.1511 25.8039 43.1851 21.7065 49.2271 20.0033C48.0115 17.052 45.1089 14.9745 41.7202 14.9745C40.873 14.9745 40.0569 15.1049 39.2899 15.3451C39.2941 15.2218 39.2994 15.0988 39.2994 14.9745C39.2994 8.9465 34.4113 4.05884 28.383 4.05884C23.1838 4.05884 18.8375 7.69325 17.7382 12.5593C17.0852 12.3416 16.3885 12.2225 15.6627 12.2225C13.4295 12.2225 11.4581 13.3405 10.276 15.047C9.61641 14.877 8.92382 14.7848 8.21083 14.7848C3.67606 14.7848 0 18.4611 0 22.9961C0 27.5302 3.67626 31.2073 8.21083 31.2073H21.3384" fill="#9FDEF7"/>
<path d="M11.9941 28.519C11.9941 22.8789 12.8615 17.4421 14.4674 12.3323C12.7355 12.652 11.2424 13.6529 10.2763 15.0472C9.61665 14.8771 8.92407 14.785 8.21108 14.785C3.6763 14.785 0.000244141 18.4612 0.000244141 22.9962C0.000244141 27.5304 3.67651 31.2075 8.21108 31.2075H12.0611C12.0174 30.3166 11.9941 29.4206 11.9941 28.519Z" fill="#83D4ED"/>
<path d="M68.922 21.4586C67.9357 21.4586 66.9785 21.5875 66.0665 21.8286C64.4319 19.4212 61.7056 17.8444 58.6171 17.8444C57.6137 17.8444 56.6505 18.0129 55.7483 18.3201C54.2277 11.4574 48.2162 6.33081 41.0273 6.33081C32.69 6.33081 25.9312 13.2237 25.9312 21.7265C25.9312 21.9019 25.9388 22.0755 25.9439 22.2487C24.8829 21.9095 23.7542 21.7265 22.5835 21.7265C16.3852 21.7265 11.3601 26.8503 11.3601 33.1732C11.3601 39.4943 16.3854 44.6185 22.5835 44.6185H56.1877H62.4242H68.9224C75.1938 44.6185 80.278 39.4338 80.278 33.0386C80.2776 26.6429 75.1934 21.4586 68.922 21.4586Z" fill="#E4F2F9"/>
<path d="M34.4485 18.9957C34.4485 14.9414 35.3045 11.0884 36.842 7.60718C30.5112 9.38555 25.8655 15.2229 25.8655 22.1549C25.8655 22.327 25.873 22.4973 25.8781 22.6673C24.8219 22.3345 23.6982 22.1549 22.5328 22.1549C16.3625 22.1549 11.3601 27.1828 11.3601 33.3874C11.3601 39.5903 16.3627 44.6186 22.5328 44.6186H50.9241C41.211 40.2189 34.4485 30.4011 34.4485 18.9957Z" fill="#D7EDF9"/>
</svg>
