<svg width="14" height="12" viewBox="0 0 14 12" fill="none" xmlns="http://www.w3.org/2000/svg">
<path d="M12.82 10.1866C12.569 10.8934 11.573 11.4797 10.7784 11.6509C10.2349 11.7663 9.52491 11.8584 7.13486 10.8701C4.07773 9.60681 2.10899 6.50826 1.95555 6.30722C1.80861 6.10619 0.720215 4.66651 0.720215 3.17755C0.720215 1.68858 1.47832 0.963553 1.7839 0.652271C2.03487 0.39676 2.44968 0.280029 2.84759 0.280029C2.97633 0.280029 3.09206 0.286514 3.19609 0.291702C3.50167 0.304673 3.65511 0.322831 3.85667 0.804021C4.10764 1.40713 4.7188 2.89609 4.79162 3.04914C4.86574 3.20219 4.93986 3.40971 4.83583 3.61075C4.73831 3.81827 4.65248 3.91035 4.49904 4.08675C4.3456 4.26314 4.19996 4.39803 4.04652 4.58739C3.90608 4.75211 3.74744 4.92851 3.92429 5.2333C4.10113 5.53161 4.7123 6.52642 5.61214 7.32538C6.77336 8.3565 7.71482 8.68594 8.05161 8.82601C8.30258 8.92977 8.60166 8.90513 8.78501 8.71058C9.01777 8.46026 9.30515 8.04522 9.59773 7.63666C9.80578 7.34353 10.0685 7.30722 10.3441 7.41098C10.625 7.50825 12.1113 8.24106 12.4169 8.39281C12.7225 8.54586 12.924 8.61849 12.9982 8.7469C13.071 8.8753 13.071 9.47841 12.82 10.1866Z" fill="#FFFFFF"/>
</svg>
